<svg width="78" height="78" viewBox="0 0 78 78" fill="none" xmlns="http://www.w3.org/2000/svg">
    <path d="M27.1374 9.74994C30.9724 9.19744 35.0349 13.3899 36.2049 19.1749C37.3749 24.9274 35.2624 30.0624 31.4274 30.6474C27.6249 31.2324 23.5299 27.0399 22.3274 21.2549C21.1249 15.5024 23.3024 10.3674 27.1374 9.74994ZM50.3749 9.74994C54.2424 10.3674 56.3874 15.5024 55.2499 21.2549C54.0149 27.0399 49.9524 31.2324 46.1174 30.6474C42.2499 30.0624 40.1374 24.9274 41.3399 19.1749C42.5099 13.3899 46.5724 9.19744 50.3749 9.74994ZM9.74994 24.6999C13.4549 23.1074 18.4924 25.9999 21.1249 31.0374C23.5949 36.1724 22.7499 41.5674 19.0774 43.1599C15.4049 44.7524 10.3999 41.8924 7.83244 36.7899C5.26494 31.6874 6.17494 26.2599 9.74994 24.6999ZM68.2499 24.6999C71.8249 26.2599 72.7349 31.6874 70.1674 36.7899C67.5999 41.8924 62.5949 44.7524 58.9224 43.1599C55.2499 41.5674 54.4049 36.1724 56.8749 31.0374C59.5074 25.9999 64.5449 23.1074 68.2499 24.6999ZM62.8224 59.7349C62.9524 62.7899 60.6124 66.1699 57.8174 67.4374C51.9999 70.1024 45.1099 64.5774 38.6424 64.5774C32.1749 64.5774 25.2199 70.3299 19.4999 67.4374C16.2499 65.8449 14.0074 61.6199 14.4299 58.1099C15.0149 53.2674 20.8324 50.6674 24.2774 47.1249C28.8599 42.5424 32.1099 33.9299 38.6424 33.9299C45.1424 33.9299 48.5874 42.4124 52.9749 47.1249C56.5824 51.0899 62.5949 54.4374 62.8224 59.7349Z" fill="#67C1C7"/>
</svg>
